<?xml version="1.0" encoding="utf-8"?>
<!-- Generator: Adobe Illustrator 23.0.1, SVG Export Plug-In . SVG Version: 6.00 Build 0)  -->
<svg version="1.1"
	 id="svg2" inkscape:version="0.48.2 r9819" sodipodi:docname="bitcoin-logo-noshadow.svg" xmlns:cc="http://creativecommons.org/ns#" xmlns:dc="http://purl.org/dc/elements/1.1/" xmlns:inkscape="http://www.inkscape.org/namespaces/inkscape" xmlns:rdf="http://www.w3.org/1999/02/22-rdf-syntax-ns#" xmlns:sodipodi="http://sodipodi.sourceforge.net/DTD/sodipodi-0.dtd" xmlns:svg="http://www.w3.org/2000/svg"
	 xmlns="http://www.w3.org/2000/svg" xmlns:xlink="http://www.w3.org/1999/xlink" x="0px" y="0px" width="71px" height="71px"
	 viewBox="0 0 71 71" style="enable-background:new 0 0 71 71;" xml:space="preserve">
<style type="text/css">
	.st0{fill:#909191;}
	.st1{fill:#FFFFFF;}
</style>
<sodipodi:namedview  bordercolor="#666666" borderopacity="1" gridtolerance="10" guidetolerance="10" id="namedview20" inkscape:current-layer="svg2" inkscape:cx="212.51437" inkscape:cy="233.24617" inkscape:pageopacity="0" inkscape:pageshadow="2" inkscape:window-height="861" inkscape:window-maximized="0" inkscape:window-width="1447" inkscape:window-x="0" inkscape:window-y="0" inkscape:zoom="0.921875" objecttolerance="10" pagecolor="#ffffff" showgrid="false">
	</sodipodi:namedview>
<g>
	<circle class="st0" cx="35.5" cy="35.5" r="35"/>
	<path class="st1" d="M48.4,35.2v-7.6c1,0.4,1.7,1.3,2,2.3c0.3,0.8,1.1,1.3,2,1c0.8-0.3,1.3-1.1,1-2l0,0c-0.7-2.3-2.6-4-5-4.6V22
		c0-0.9-0.7-1.6-1.6-1.6c-0.9,0-1.6,0.7-1.6,1.6v2.3C42.2,25,40,27.8,40,30.9c0,3.9,2.8,5.4,5.3,6.4v7.6c-1.3-0.6-2.2-1.9-2.2-3.4
		c0-0.9-0.7-1.6-1.6-1.6c-0.9,0-1.6,0.7-1.6,1.6c0,3.2,2.2,5.9,5.3,6.7v2.3c0,0.9,0.7,1.6,1.6,1.6c0.9,0,1.6-0.7,1.6-1.6v-2.3
		c3.1-0.7,5.3-3.5,5.3-6.7C53.7,37.6,50.9,36.2,48.4,35.2z M43.1,31c0-1.5,0.9-2.8,2.2-3.4V34C43.7,33.2,43.1,32.5,43.1,31z
		 M48.4,45v-6.4c1.5,0.7,2.2,1.5,2.2,3C50.5,43,49.7,44.3,48.4,45L48.4,45z"/>
	<path class="st1" d="M28.7,26c-0.4-1.1-1.4-1.8-2.5-1.8l0,0c-1.1,0-2.1,0.7-2.5,1.8l-8.3,22.2c-0.3,0.8,0.2,1.7,1,1.9
		c0.8,0.2,1.6-0.1,1.9-0.9l3.3-8.7h9.3l3.2,8.7c0.2,0.6,0.8,1,1.5,1c0.2,0,0.4,0,0.5-0.1c0.8-0.3,1.2-1.2,0.9-2L28.7,26z M22.7,37.5
		l3.5-9.4l3.5,9.4H22.7z"/>
</g>
</svg>
