<?xml version="1.0" encoding="utf-8"?>
<!-- Generator: Adobe Illustrator 23.0.1, SVG Export Plug-In . SVG Version: 6.00 Build 0)  -->
<svg version="1.1"
	 id="svg2" inkscape:version="0.48.2 r9819" sodipodi:docname="bitcoin-logo-noshadow.svg" xmlns:cc="http://creativecommons.org/ns#" xmlns:dc="http://purl.org/dc/elements/1.1/" xmlns:inkscape="http://www.inkscape.org/namespaces/inkscape" xmlns:rdf="http://www.w3.org/1999/02/22-rdf-syntax-ns#" xmlns:sodipodi="http://sodipodi.sourceforge.net/DTD/sodipodi-0.dtd" xmlns:svg="http://www.w3.org/2000/svg"
	 xmlns="http://www.w3.org/2000/svg" xmlns:xlink="http://www.w3.org/1999/xlink" x="0px" y="0px" width="71px" height="71px"
	 viewBox="0 0 71 71" style="enable-background:new 0 0 71 71;" xml:space="preserve">
<style type="text/css">
	.st0{fill:url(#coin_1_);}
	.st1{fill:#FFFFFF;}
</style>
<sodipodi:namedview  bordercolor="#666666" borderopacity="1" gridtolerance="10" guidetolerance="10" id="namedview20" inkscape:current-layer="svg2" inkscape:cx="212.51437" inkscape:cy="233.24617" inkscape:pageopacity="0" inkscape:pageshadow="2" inkscape:window-height="861" inkscape:window-maximized="0" inkscape:window-width="1447" inkscape:window-x="0" inkscape:window-y="0" inkscape:zoom="0.921875" objecttolerance="10" pagecolor="#ffffff" showgrid="false">
	</sodipodi:namedview>
<g id="g16" transform="scale(0.015625)">
	
		<linearGradient id="coin_1_" gradientUnits="userSpaceOnUse" x1="-16283.7031" y1="41008.0742" x2="-16283.7031" y2="41007.9375" gradientTransform="matrix(511.9455 0 0 -512.0051 8338631 20996370)">
		<stop  offset="0" style="stop-color:#F9AA4B"/>
		<stop  offset="1" style="stop-color:#F7931A"/>
	</linearGradient>
	<path id="coin" class="st0" d="M4434.9,2808c-299.2,1200-1514.8,1930.3-2715,1631.1C520.1,4139.9-210.3,2924.4,89.1,1724.5
		C388.2,524.4,1603.7-206,2803.6,93.2C4003.8,392.3,4734.2,1607.9,4434.9,2808L4434.9,2808z"/>
	<path id="symbol" class="st1" d="M3249.4,1947c44.6-298.1-182.4-458.3-492.7-565.2l100.7-403.8l-245.8-61.2l-98,393.1
		c-64.6-16.1-131-31.3-196.9-46.3l98.7-395.7l-245.7-61.2l-100.7,403.6c-53.5-12.2-106-24.2-157-36.9l0.3-1.3l-339-84.6l-65.4,262.5
		c0,0,182.4,41.8,178.5,44.4c99.6,24.8,117.5,90.7,114.5,142.9l-114.7,460c6.9,1.8,15.8,4.3,25.6,8.2c-8.2-2-16.9-4.3-26-6.4
		l-160.7,644.3c-12.2,30.2-43.1,75.6-112.6,58.4c2.5,3.6-178.7-44.6-178.7-44.6l-122,281.3l319.9,79.7
		c59.5,14.9,117.8,30.5,175.2,45.2l-101.7,408.4l245.5,61.2l100.7-404c67.1,18.2,132.2,35,195.9,50.8L1946.9,3582l245.8,61.2
		l101.7-407.6c419.1,79.3,734.3,47.3,867-331.7c106.9-305.2-5.3-481.2-225.8-596C3096.1,2270.8,3217.1,2165.2,3249.4,1947
		L3249.4,1947z M2687.8,2734.4c-76,305.2-589.9,140.2-756.5,98.8l135-541C2232.9,2333.8,2767.2,2416.2,2687.8,2734.4z
		 M2763.8,1942.6c-69.3,277.6-497.1,136.6-635.8,102l122.4-490.7C2389.1,1588.5,2836,1653,2763.8,1942.6z"/>
</g>
</svg>
