<?xml version="1.0" encoding="utf-8"?>
<!-- Generator: Adobe Illustrator 23.0.1, SVG Export Plug-In . SVG Version: 6.00 Build 0)  -->
<svg version="1.1"
	 id="svg2" inkscape:version="0.48.2 r9819" sodipodi:docname="bitcoin-logo-noshadow.svg" xmlns:cc="http://creativecommons.org/ns#" xmlns:dc="http://purl.org/dc/elements/1.1/" xmlns:inkscape="http://www.inkscape.org/namespaces/inkscape" xmlns:rdf="http://www.w3.org/1999/02/22-rdf-syntax-ns#" xmlns:sodipodi="http://sodipodi.sourceforge.net/DTD/sodipodi-0.dtd" xmlns:svg="http://www.w3.org/2000/svg"
	 xmlns="http://www.w3.org/2000/svg" xmlns:xlink="http://www.w3.org/1999/xlink" x="0px" y="0px" width="71px" height="71px"
	 viewBox="0 0 71 71" style="enable-background:new 0 0 71 71;" xml:space="preserve">
<style type="text/css">
	.st0{fill:#909191;}
	.st1{fill:#FFFFFF;}
</style>
<sodipodi:namedview  bordercolor="#666666" borderopacity="1" gridtolerance="10" guidetolerance="10" id="namedview20" inkscape:current-layer="svg2" inkscape:cx="212.51437" inkscape:cy="233.24617" inkscape:pageopacity="0" inkscape:pageshadow="2" inkscape:window-height="861" inkscape:window-maximized="0" inkscape:window-width="1447" inkscape:window-x="0" inkscape:window-y="0" inkscape:zoom="0.921875" objecttolerance="10" pagecolor="#ffffff" showgrid="false">
	</sodipodi:namedview>
<g>
	<circle class="st0" cx="35.5" cy="35.5" r="35"/>
	<path class="st1" d="M44.6,34.1c1.9-1.5,3.1-3.9,3.1-6.5v-1.1c0-4.6-3.8-8.4-8.4-8.4h-2.1v-5c0-0.9-0.7-1.5-1.5-1.5
		c-0.9,0-1.5,0.7-1.5,1.5v5h-8.2c-0.9,0-1.5,0.7-1.5,1.5v14.9v16.4c0,0.9,0.7,1.5,1.5,1.5h8.2v5.5c0,0.9,0.7,1.5,1.5,1.5
		c0.9,0,1.5-0.7,1.5-1.5v-5.5H40c5,0,9.1-4.1,9.1-9.1V42C49.1,38.7,47.3,35.7,44.6,34.1z M39.3,21.1c2.9,0,5.3,2.4,5.3,5.3v1.1
		c0,2.9-2.4,5.3-5.3,5.3h-2.1V21.1H39.3z M27.4,21.1h6.7v11.8h-6.7V21.1z M27.4,49.3V36h6.7v13.3H27.4z M46,43.3c0,3.3-2.7,6-6,6
		h-2.9V36h2.1H40c3.3,0,6,2.7,6,6V43.3z"/>
</g>
</svg>
