<?xml version="1.0" encoding="utf-8"?>
<!-- Generator: Adobe Illustrator 23.0.1, SVG Export Plug-In . SVG Version: 6.00 Build 0)  -->
<svg version="1.1"
	 id="svg2" inkscape:version="0.48.2 r9819" sodipodi:docname="bitcoin-logo-noshadow.svg" xmlns:cc="http://creativecommons.org/ns#" xmlns:dc="http://purl.org/dc/elements/1.1/" xmlns:inkscape="http://www.inkscape.org/namespaces/inkscape" xmlns:rdf="http://www.w3.org/1999/02/22-rdf-syntax-ns#" xmlns:sodipodi="http://sodipodi.sourceforge.net/DTD/sodipodi-0.dtd" xmlns:svg="http://www.w3.org/2000/svg"
	 xmlns="http://www.w3.org/2000/svg" xmlns:xlink="http://www.w3.org/1999/xlink" x="0px" y="0px" width="71px" height="71px"
	 viewBox="0 0 71 71" style="enable-background:new 0 0 71 71;" xml:space="preserve">
<style type="text/css">
	.st0{fill:#909191;}
	.st1{fill:#FFFFFF;}
</style>
<sodipodi:namedview  bordercolor="#666666" borderopacity="1" gridtolerance="10" guidetolerance="10" id="namedview20" inkscape:current-layer="svg2" inkscape:cx="212.51437" inkscape:cy="233.24617" inkscape:pageopacity="0" inkscape:pageshadow="2" inkscape:window-height="861" inkscape:window-maximized="0" inkscape:window-width="1447" inkscape:window-x="0" inkscape:window-y="0" inkscape:zoom="0.921875" objecttolerance="10" pagecolor="#ffffff" showgrid="false">
	</sodipodi:namedview>
<g>
	<circle class="st0" cx="35.5" cy="35.5" r="35"/>
	<path class="st1" d="M54.7,26.2c0.8,0,1.5-0.7,1.5-1.5c0-0.9-0.7-1.6-1.5-1.6L50,23c-1.5-3.9-5.2-6.6-9.6-6.7L28.4,16
		c-0.9,0-1.6,0.7-1.6,1.5c0,0.1,0,0.3,0.1,0.4c0,0.1-0.1,0.3-0.1,0.4l-0.1,4.2l-5.3-0.1c-0.9-0.1-1.6,0.7-1.6,1.5
		c0,0.9,0.7,1.6,1.5,1.6l5.3,0.1l-0.1,4.4L21.3,30c-0.9,0-1.6,0.7-1.6,1.5c0,0.9,0.7,1.6,1.5,1.6l5.3,0.1l-0.1,6.1l0,0c0,0,0,0,0,0
		l-0.3,16.6c0,0.9,0.7,1.6,1.5,1.6c0,0,0,0,0,0c0.8,0,1.5-0.7,1.5-1.5l0.3-15l10.4,0.2c0.1,0,0.1,0,0.2,0c2.7,0,5.3-1,7.3-2.9
		c1.3-1.3,2.3-2.8,2.8-4.5l4.4,0.1c0,0,0,0,0,0c0.8,0,1.5-0.7,1.5-1.5c0-0.9-0.7-1.6-1.5-1.6l-3.9-0.1l0.1-3.6c0-0.3,0-0.6,0-0.9
		L54.7,26.2C54.7,26.2,54.7,26.2,54.7,26.2z M29.9,19.1l10.4,0.2c2.6,0.1,4.9,1.5,6.2,3.6l-16.7-0.3L29.9,19.1z M45.2,35.9
		c-1.4,1.4-3.3,2.1-5.3,2.1l-10.4-0.2l0.1-4.6l17.3,0.4C46.5,34.5,45.9,35.3,45.2,35.9z M47.6,26.9l-0.1,3.6l-17.8-0.4l0.1-4.4
		L47.5,26C47.6,26.3,47.6,26.6,47.6,26.9z"/>
</g>
</svg>
