<?xml version="1.0" encoding="utf-8"?>
<!-- Generator: Adobe Illustrator 23.0.1, SVG Export Plug-In . SVG Version: 6.00 Build 0)  -->
<svg version="1.1"
	 id="svg2" inkscape:version="0.48.2 r9819" sodipodi:docname="bitcoin-logo-noshadow.svg" xmlns:cc="http://creativecommons.org/ns#" xmlns:dc="http://purl.org/dc/elements/1.1/" xmlns:inkscape="http://www.inkscape.org/namespaces/inkscape" xmlns:rdf="http://www.w3.org/1999/02/22-rdf-syntax-ns#" xmlns:sodipodi="http://sodipodi.sourceforge.net/DTD/sodipodi-0.dtd" xmlns:svg="http://www.w3.org/2000/svg"
	 xmlns="http://www.w3.org/2000/svg" xmlns:xlink="http://www.w3.org/1999/xlink" x="0px" y="0px" width="71px" height="71px"
	 viewBox="0 0 71 71" style="enable-background:new 0 0 71 71;" xml:space="preserve">
<style type="text/css">
	.st0{fill:#909191;}
	.st1{fill:#FFFFFF;}
</style>
<sodipodi:namedview  bordercolor="#666666" borderopacity="1" gridtolerance="10" guidetolerance="10" id="namedview20" inkscape:current-layer="svg2" inkscape:cx="212.51437" inkscape:cy="233.24617" inkscape:pageopacity="0" inkscape:pageshadow="2" inkscape:window-height="861" inkscape:window-maximized="0" inkscape:window-width="1447" inkscape:window-x="0" inkscape:window-y="0" inkscape:zoom="0.921875" objecttolerance="10" pagecolor="#ffffff" showgrid="false">
	</sodipodi:namedview>
<g>
	<circle class="st0" cx="35.5" cy="35.5" r="35"/>
	<path class="st1" d="M48.1,19.2h-3.4v-4.8c0-0.9-0.7-1.5-1.5-1.5s-1.5,0.7-1.5,1.5v4.8h-9c-0.9,0-1.5,0.7-1.5,1.5
		c0,0.9,0.7,1.5,1.5,1.5h9v8.1c-2.2-2.5-5.4-4.1-9-4.1c-6.7,0-12.1,5.4-12.1,12.1s5.4,12.1,12.1,12.1c3.6,0,6.8-1.6,9-4.1v2.5
		c0,0.9,0.7,1.5,1.5,1.5s1.5-0.7,1.5-1.5V38.5V22.3h3.4c0.9,0,1.5-0.7,1.5-1.5C49.7,19.9,49,19.2,48.1,19.2z M32.6,47.5
		c-5,0-9-4.1-9-9c0-5,4.1-9,9-9s9,4.1,9,9C41.6,43.5,37.5,47.5,32.6,47.5z"/>
</g>
</svg>
