<?xml version="1.0" encoding="utf-8"?>
<!-- Generator: Adobe Illustrator 23.0.1, SVG Export Plug-In . SVG Version: 6.00 Build 0)  -->
<svg version="1.1"
	 id="svg2" inkscape:version="0.48.2 r9819" sodipodi:docname="bitcoin-logo-noshadow.svg" xmlns:cc="http://creativecommons.org/ns#" xmlns:dc="http://purl.org/dc/elements/1.1/" xmlns:inkscape="http://www.inkscape.org/namespaces/inkscape" xmlns:rdf="http://www.w3.org/1999/02/22-rdf-syntax-ns#" xmlns:sodipodi="http://sodipodi.sourceforge.net/DTD/sodipodi-0.dtd" xmlns:svg="http://www.w3.org/2000/svg"
	 xmlns="http://www.w3.org/2000/svg" xmlns:xlink="http://www.w3.org/1999/xlink" x="0px" y="0px" width="41.7px" height="53.7px"
	 viewBox="0 0 41.7 53.7" style="enable-background:new 0 0 41.7 53.7;" xml:space="preserve">
<style type="text/css">
	.st0{fill:#C4C9CC;}
	.st1{fill-rule:evenodd;clip-rule:evenodd;fill:#636565;}
</style>
<g>
	<g>
		<rect x="1114" y="319.3" class="st0" width="13.2" height="11.6"/>
		<rect x="1114" y="339.5" class="st0" width="13.2" height="11.6"/>
		<rect x="1114" y="359.7" class="st0" width="13.2" height="11.6"/>
		<rect x="1135.4" y="319.3" class="st0" width="13.2" height="11.6"/>
		<rect x="1135.4" y="339.5" class="st0" width="13.2" height="11.6"/>
		<rect x="1135.4" y="359.7" class="st0" width="13.2" height="11.6"/>
		<rect x="1156.8" y="319.3" class="st0" width="13.2" height="11.6"/>
		<rect x="1156.8" y="339.5" class="st0" width="13.2" height="11.6"/>
		<rect x="1156.8" y="359.7" class="st0" width="13.2" height="11.6"/>
	</g>
</g>
<sodipodi:namedview  bordercolor="#666666" borderopacity="1" gridtolerance="10" guidetolerance="10" id="namedview20" inkscape:current-layer="svg2" inkscape:cx="212.51437" inkscape:cy="233.24617" inkscape:pageopacity="0" inkscape:pageshadow="2" inkscape:window-height="861" inkscape:window-maximized="0" inkscape:window-width="1447" inkscape:window-x="0" inkscape:window-y="0" inkscape:zoom="0.921875" objecttolerance="10" pagecolor="#ffffff" showgrid="false">
	</sodipodi:namedview>
<g>
	<polygon class="st1" points="24.5,47.9 40.8,52.7 40.8,0.7 24.5,5.3 24.5,14.6 28.2,14.6 28.2,38.7 24.5,38.7 	"/>
	<path class="st1" d="M16.5,18.2c-0.4,0-0.7,0-1.1,0.1c-1.5-1.8-3.8-3-6.3-3c-4.6,0-8.4,3.9-8.4,8.6c0,4.3,3,7.9,7,8.5
		c1.6,3.3,4.8,5.7,8.7,5.7c5.3,0,9.6-4.5,9.6-10C26.1,22.6,21.8,18.2,16.5,18.2z M3.4,23.9C3.4,20.6,6,18,9.2,18
		c1.2,0,2.4,0.4,3.3,1.1c-3.3,1.6-5.6,5-5.6,9.1c0,0.4,0,0.9,0.1,1.3C4.9,28.5,3.4,26.4,3.4,23.9z"/>
</g>
</svg>
