<?xml version="1.0" encoding="utf-8"?>
<!-- Generator: Adobe Illustrator 23.0.1, SVG Export Plug-In . SVG Version: 6.00 Build 0)  -->
<svg version="1.1"
	 id="svg2" inkscape:version="0.48.2 r9819" sodipodi:docname="bitcoin-logo-noshadow.svg" xmlns:cc="http://creativecommons.org/ns#" xmlns:dc="http://purl.org/dc/elements/1.1/" xmlns:inkscape="http://www.inkscape.org/namespaces/inkscape" xmlns:rdf="http://www.w3.org/1999/02/22-rdf-syntax-ns#" xmlns:sodipodi="http://sodipodi.sourceforge.net/DTD/sodipodi-0.dtd" xmlns:svg="http://www.w3.org/2000/svg"
	 xmlns="http://www.w3.org/2000/svg" xmlns:xlink="http://www.w3.org/1999/xlink" x="0px" y="0px" width="55.7px" height="55.7px"
	 viewBox="0 0 55.7 55.7" style="enable-background:new 0 0 55.7 55.7;" xml:space="preserve">
<style type="text/css">
	.st0{fill:#C4C9CC;}
</style>
<sodipodi:namedview  bordercolor="#666666" borderopacity="1" gridtolerance="10" guidetolerance="10" id="namedview20" inkscape:current-layer="svg2" inkscape:cx="212.51437" inkscape:cy="233.24617" inkscape:pageopacity="0" inkscape:pageshadow="2" inkscape:window-height="861" inkscape:window-maximized="0" inkscape:window-width="1447" inkscape:window-x="0" inkscape:window-y="0" inkscape:zoom="0.921875" objecttolerance="10" pagecolor="#ffffff" showgrid="false">
	</sodipodi:namedview>
<g>
	<path class="st0" d="M22.3,42.7C10.5,42.7,1,33.3,1,21.8C1,10.2,10.5,0.9,22.3,0.9c11.7,0,21.3,9.4,21.3,20.9
		C43.6,33.3,34,42.7,22.3,42.7z M22.3,5.8c-9,0-16.3,7.2-16.3,16c0,8.8,7.3,16,16.3,16s16.3-7.2,16.3-16
		C38.6,12.9,31.3,5.8,22.3,5.8z"/>
	<polygon class="st0" points="51.7,50.9 34.5,36 37.8,32.3 55,47.2 	"/>
</g>
</svg>
