<?xml version="1.0" encoding="utf-8"?>
<!-- Generator: Adobe Illustrator 23.0.1, SVG Export Plug-In . SVG Version: 6.00 Build 0)  -->
<svg version="1.1"
	 id="svg2" inkscape:version="0.48.2 r9819" sodipodi:docname="bitcoin-logo-noshadow.svg" xmlns:cc="http://creativecommons.org/ns#" xmlns:dc="http://purl.org/dc/elements/1.1/" xmlns:inkscape="http://www.inkscape.org/namespaces/inkscape" xmlns:rdf="http://www.w3.org/1999/02/22-rdf-syntax-ns#" xmlns:sodipodi="http://sodipodi.sourceforge.net/DTD/sodipodi-0.dtd" xmlns:svg="http://www.w3.org/2000/svg"
	 xmlns="http://www.w3.org/2000/svg" xmlns:xlink="http://www.w3.org/1999/xlink" x="0px" y="0px" width="47.2px" height="47.7px"
	 viewBox="0 0 47.2 47.7" style="enable-background:new 0 0 47.2 47.7;" xml:space="preserve">
<style type="text/css">
	.st0{fill:#C4C9CC;}
	.st1{fill:#636565;}
</style>
<g>
	<g>
		<rect x="1114" y="319.3" class="st0" width="13.2" height="11.6"/>
		<rect x="1114" y="339.5" class="st0" width="13.2" height="11.6"/>
		<rect x="1114" y="359.7" class="st0" width="13.2" height="11.6"/>
		<rect x="1135.4" y="319.3" class="st0" width="13.2" height="11.6"/>
		<rect x="1135.4" y="339.5" class="st0" width="13.2" height="11.6"/>
		<rect x="1135.4" y="359.7" class="st0" width="13.2" height="11.6"/>
		<rect x="1156.8" y="319.3" class="st0" width="13.2" height="11.6"/>
		<rect x="1156.8" y="339.5" class="st0" width="13.2" height="11.6"/>
		<rect x="1156.8" y="359.7" class="st0" width="13.2" height="11.6"/>
	</g>
</g>
<sodipodi:namedview  bordercolor="#666666" borderopacity="1" gridtolerance="10" guidetolerance="10" id="namedview20" inkscape:current-layer="svg2" inkscape:cx="212.51437" inkscape:cy="233.24617" inkscape:pageopacity="0" inkscape:pageshadow="2" inkscape:window-height="861" inkscape:window-maximized="0" inkscape:window-width="1447" inkscape:window-x="0" inkscape:window-y="0" inkscape:zoom="0.921875" objecttolerance="10" pagecolor="#ffffff" showgrid="false">
	</sodipodi:namedview>
<g>
	<path class="st1" d="M25.4,15.8c-1,0-1.7,0.8-1.7,1.7s0.8,1.7,1.7,1.7c1,0,1.7-0.8,1.7-1.7S26.4,15.8,25.4,15.8z"/>
	<path class="st1" d="M12.1,21.2c-1,0-1.7,0.8-1.7,1.7s0.8,1.7,1.7,1.7c1,0,1.7-0.8,1.7-1.7C13.8,22,13,21.2,12.1,21.2z"/>
	<path class="st1" d="M20,28.1c-1,0-1.7,0.8-1.7,1.7s0.8,1.7,1.7,1.7s1.7-0.8,1.7-1.7C21.7,28.9,21,28.1,20,28.1z"/>
	<path class="st1" d="M23.5,0.7c-12.7,0-23,10.3-23,23s10.3,23,23,23s23-10.3,23-23S36.2,0.7,23.5,0.7z M36.8,21.3
		c0.3,0.5,0.5,1.1,0.5,1.7c0,1.7-1.4,3.1-3.1,3.1S31,24.7,31,23c0-0.4,0.1-0.7,0.2-1l-3.5-2.2c-0.6,0.6-1.4,0.9-2.2,0.9
		c-0.2,0-0.4,0-0.6-0.1l-3,6.8c0.8,0.6,1.3,1.5,1.3,2.5c0,1.7-1.4,3.1-3.1,3.1s-3.1-1.4-3.1-3.1c0-0.5,0.1-1,0.4-1.5l-3.4-2.9
		c-0.5,0.4-1.2,0.6-1.8,0.6c-0.6,0-1.2-0.2-1.7-0.5l-3.6,3.6c-0.1,0.1-0.3,0.2-0.5,0.2c-0.2,0-0.4-0.1-0.5-0.2c-0.3-0.3-0.3-0.7,0-1
		l3.6-3.6c-0.3-0.5-0.5-1.1-0.5-1.7c0-1.7,1.4-3.1,3.1-3.1s3.1,1.4,3.1,3.1c0,0.5-0.1,1-0.4,1.5l3.4,2.9c0.5-0.4,1.2-0.6,1.8-0.6
		c0.2,0,0.4,0,0.6,0.1l3-6.8c-0.8-0.6-1.3-1.5-1.3-2.5c0-1.7,1.4-3.1,3.1-3.1s3.1,1.4,3.1,3.1c0,0.4-0.1,0.7-0.2,1l3.5,2.2
		c0.6-0.6,1.4-0.9,2.2-0.9c0.6,0,1.2,0.2,1.7,0.5l4.4-4.4c0.3-0.3,0.7-0.3,1,0s0.3,0.7,0,1L36.8,21.3z"/>
	<path class="st1" d="M35.4,21.7C35.4,21.7,35.4,21.7,35.4,21.7c-0.3-0.3-0.8-0.5-1.2-0.5c-1,0-1.7,0.8-1.7,1.7s0.8,1.7,1.7,1.7
		c1,0,1.7-0.8,1.7-1.7C35.9,22.5,35.7,22.1,35.4,21.7C35.4,21.7,35.4,21.7,35.4,21.7z"/>
</g>
</svg>
