<?xml version="1.0" encoding="utf-8"?>
<!-- Generator: Adobe Illustrator 23.0.1, SVG Export Plug-In . SVG Version: 6.00 Build 0)  -->
<svg version="1.1"
	 id="svg2" inkscape:version="0.48.2 r9819" sodipodi:docname="bitcoin-logo-noshadow.svg" xmlns:cc="http://creativecommons.org/ns#" xmlns:dc="http://purl.org/dc/elements/1.1/" xmlns:inkscape="http://www.inkscape.org/namespaces/inkscape" xmlns:rdf="http://www.w3.org/1999/02/22-rdf-syntax-ns#" xmlns:sodipodi="http://sodipodi.sourceforge.net/DTD/sodipodi-0.dtd" xmlns:svg="http://www.w3.org/2000/svg"
	 xmlns="http://www.w3.org/2000/svg" xmlns:xlink="http://www.w3.org/1999/xlink" x="0px" y="0px" width="44.4px" height="38.7px"
	 viewBox="0 0 44.4 38.7" style="enable-background:new 0 0 44.4 38.7;" xml:space="preserve">
<style type="text/css">
	.st0{fill:#C4C9CC;}
	.st1{fill:#636565;}
</style>
<g>
	<g>
		<rect x="1114" y="319.3" class="st0" width="13.2" height="11.6"/>
		<rect x="1114" y="339.5" class="st0" width="13.2" height="11.6"/>
		<rect x="1114" y="359.7" class="st0" width="13.2" height="11.6"/>
		<rect x="1135.4" y="319.3" class="st0" width="13.2" height="11.6"/>
		<rect x="1135.4" y="339.5" class="st0" width="13.2" height="11.6"/>
		<rect x="1135.4" y="359.7" class="st0" width="13.2" height="11.6"/>
		<rect x="1156.8" y="319.3" class="st0" width="13.2" height="11.6"/>
		<rect x="1156.8" y="339.5" class="st0" width="13.2" height="11.6"/>
		<rect x="1156.8" y="359.7" class="st0" width="13.2" height="11.6"/>
	</g>
</g>
<sodipodi:namedview  bordercolor="#666666" borderopacity="1" gridtolerance="10" guidetolerance="10" id="namedview20" inkscape:current-layer="svg2" inkscape:cx="212.51437" inkscape:cy="233.24617" inkscape:pageopacity="0" inkscape:pageshadow="2" inkscape:window-height="861" inkscape:window-maximized="0" inkscape:window-width="1447" inkscape:window-x="0" inkscape:window-y="0" inkscape:zoom="0.921875" objecttolerance="10" pagecolor="#ffffff" showgrid="false">
	</sodipodi:namedview>
<g>
	<g>
		<polygon class="st1" points="32.2,5.8 27.2,0.8 8.3,20 0.6,13.6 0.6,37.8 		"/>
	</g>
	<g>
		<polygon class="st1" points="12.7,32.5 17.7,37.5 36.7,18.4 43.6,25.5 43.6,1.3 		"/>
	</g>
</g>
</svg>
