<?xml version="1.0" encoding="utf-8"?>
<!-- Generator: Adobe Illustrator 23.0.1, SVG Export Plug-In . SVG Version: 6.00 Build 0)  -->
<svg version="1.1"
	 id="svg2" inkscape:version="0.48.2 r9819" sodipodi:docname="bitcoin-logo-noshadow.svg" xmlns:cc="http://creativecommons.org/ns#" xmlns:dc="http://purl.org/dc/elements/1.1/" xmlns:inkscape="http://www.inkscape.org/namespaces/inkscape" xmlns:rdf="http://www.w3.org/1999/02/22-rdf-syntax-ns#" xmlns:sodipodi="http://sodipodi.sourceforge.net/DTD/sodipodi-0.dtd" xmlns:svg="http://www.w3.org/2000/svg"
	 xmlns="http://www.w3.org/2000/svg" xmlns:xlink="http://www.w3.org/1999/xlink" x="0px" y="0px" width="44.4px" height="45px"
	 viewBox="0 0 44.4 45" style="enable-background:new 0 0 44.4 45;" xml:space="preserve">
<style type="text/css">
	.st0{fill:#C4C9CC;}
</style>
<g>
	<g>
		<rect x="1114" y="319.3" class="st0" width="13.2" height="11.6"/>
		<rect x="1114" y="339.5" class="st0" width="13.2" height="11.6"/>
		<rect x="1114" y="359.7" class="st0" width="13.2" height="11.6"/>
		<rect x="1135.4" y="319.3" class="st0" width="13.2" height="11.6"/>
		<rect x="1135.4" y="339.5" class="st0" width="13.2" height="11.6"/>
		<rect x="1135.4" y="359.7" class="st0" width="13.2" height="11.6"/>
		<rect x="1156.8" y="319.3" class="st0" width="13.2" height="11.6"/>
		<rect x="1156.8" y="339.5" class="st0" width="13.2" height="11.6"/>
		<rect x="1156.8" y="359.7" class="st0" width="13.2" height="11.6"/>
	</g>
</g>
<sodipodi:namedview  bordercolor="#666666" borderopacity="1" gridtolerance="10" guidetolerance="10" id="namedview20" inkscape:current-layer="svg2" inkscape:cx="212.51437" inkscape:cy="233.24617" inkscape:pageopacity="0" inkscape:pageshadow="2" inkscape:window-height="861" inkscape:window-maximized="0" inkscape:window-width="1447" inkscape:window-x="0" inkscape:window-y="0" inkscape:zoom="0.921875" objecttolerance="10" pagecolor="#ffffff" showgrid="false">
	</sodipodi:namedview>
<g>
	<g>
		<polygon class="st0" points="43.7,5.4 39.3,0.9 22.2,18 5.1,0.9 0.7,5.4 17.8,22.4 0.7,39.5 5.1,43.9 22.2,26.9 39.3,43.9 
			43.7,39.5 26.6,22.4 		"/>
	</g>
</g>
</svg>
