<?xml version="1.0" encoding="utf-8"?>
<!-- Generator: Adobe Illustrator 23.0.1, SVG Export Plug-In . SVG Version: 6.00 Build 0)  -->
<svg version="1.1"
	 id="svg2" inkscapeVersion="0.48.2 r9819" sodipodiDocname="bitcoin-logo-noshadow.svg" xmlnsCc="http://creativecommons.org/ns#" xmlnsDc="http://purl.org/dc/elements/1.1/" xmlnsInkscape="http://www.inkscape.org/namespaces/inkscape" xmlnsRdf="http://www.w3.org/1999/02/22-rdf-syntax-ns#" xmlnsSodipodi="http://sodipodi.sourceforge.net/DTD/sodipodi-0.dtd" xmlnsSvg="http://www.w3.org/2000/svg"
	 xmlns="http://www.w3.org/2000/svg" xmlnsXlink="http://www.w3.org/1999/xlink" x="0px" y="0px" width="57.9px" height="55.7px"
	 viewBox="0 0 57.9 55.7" style="enable-background:new 0 0 57.9 55.7;" xmlSpace="preserve">
<style type="text/css">
	.st0{fill:#C4C9CC;}
	.st1{fill:#353535;}
</style>
<g>
	<g>
		<rect x="1114" y="329" class="st0" width="13.2" height="11.6"/>
		<rect x="1114" y="349.2" class="st0" width="13.2" height="11.6"/>
		<rect x="1114" y="369.4" class="st0" width="13.2" height="11.6"/>
		<rect x="1135.4" y="329" class="st0" width="13.2" height="11.6"/>
		<rect x="1135.4" y="349.2" class="st0" width="13.2" height="11.6"/>
		<rect x="1135.4" y="369.4" class="st0" width="13.2" height="11.6"/>
		<rect x="1156.8" y="329" class="st0" width="13.2" height="11.6"/>
		<rect x="1156.8" y="349.2" class="st0" width="13.2" height="11.6"/>
		<rect x="1156.8" y="369.4" class="st0" width="13.2" height="11.6"/>
	</g>
</g>
<sodipodiNamedview  bordercolor="#666666" borderopacity="1" gridtolerance="10" guidetolerance="10" id="namedview20" inkscapeCurrent-layer="svg2" inkscapeCx="212.51437" inkscapeCy="233.24617" inkscapePageopacity="0" inkscapePageshadow="2" inkscapeWindow-height="861" inkscapeWindow-maximized="0" inkscapeWindow-width="1447" inkscapeWindow-x="0" inkscapeWindow-y="0" inkscapeZoom="0.921875" objecttolerance="10" pagecolor="#ffffff" showgrid="false">
	</sodipodiNamedview>
<g>
	<rect x="1" y="1.9" class="st1" width="13.2" height="11.6"/>
	<rect x="1" y="22" class="st1" width="13.2" height="11.6"/>
	<rect x="1" y="42.2" class="st1" width="13.2" height="11.6"/>
	<rect x="22.4" y="1.9" class="st1" width="13.2" height="11.6"/>
	<rect x="22.4" y="22" class="st1" width="13.2" height="11.6"/>
	<rect x="22.4" y="42.2" class="st1" width="13.2" height="11.6"/>
	<rect x="43.8" y="1.9" class="st1" width="13.2" height="11.6"/>
	<rect x="43.8" y="22" class="st1" width="13.2" height="11.6"/>
	<rect x="43.8" y="42.2" class="st1" width="13.2" height="11.6"/>
</g>
</svg>
