<svg version="1.1" id="svg2" xmlns="http://www.w3.org/2000/svg" x="0" y="0" width="16.1" height="17.2" viewBox="0 0 16.1 17.2" style="enable-background:new 0 0 16.1 17.2" xml:space="preserve"><style>.st0{fill:#c4c9cc}</style><path class="st0" d="M1114 319.3h13.2v11.6H1114zm0 20.2h13.2v11.6H1114zm0 20.2h13.2v11.6H1114zm21.4-40.4h13.2v11.6h-13.2zm0 20.2h13.2v11.6h-13.2zm0 20.2h13.2v11.6h-13.2zm21.4-40.4h13.2v11.6h-13.2zm0 20.2h13.2v11.6h-13.2zm0 20.2h13.2v11.6h-13.2z"/><ellipse class="st0" cx="8.1" cy="4.8" rx="4.4" ry="4.3"/><path class="st0" d="M8.1 9.1C4 9.1.6 12.4.6 16.5h15c0-4.1-3.3-7.4-7.5-7.4z"/></svg>