<svg xmlns="http://www.w3.org/2000/svg" width="52.8" height="50.8" viewBox="0 0 52.8 50.8" style="enable-background:new 0 0 52.8 50.8" xml:space="preserve"><path d="M1114 329h13.2v11.6H1114zm0 20.2h13.2v11.6H1114zm0 20.2h13.2V381H1114zm21.4-40.4h13.2v11.6h-13.2zm0 20.2h13.2v11.6h-13.2zm0 20.2h13.2V381h-13.2zm21.4-40.4h13.2v11.6h-13.2zm0 20.2h13.2v11.6h-13.2zm0 20.2h13.2V381h-13.2z" style="fill:#c4c9cc"/><path d="M11.8 23.1h39.6v6.1H11.8zM1.4 3.4h50v6.1h-50zm0 37.9h50v6.1h-50z" style="fill:#eb2d44"/></svg>